<svg width="461" height="78" viewBox="0 0 461 78" fill="none" xmlns="http://www.w3.org/2000/svg">
<path d="M49.6594 77.1889C43.8504 77.1889 38.3131 76.4157 33.4445 74.8486C30.7072 73.971 29.1818 71.0247 30.0803 68.2665C30.9579 65.5292 33.9042 64.0038 36.6624 64.9023C46.5459 68.0784 60.734 67.0337 72.8325 62.2277C85.0772 57.3382 84.2832 49.168 83.3638 45.8874C83.0503 44.78 80.2712 42.7531 78.0354 41.1233C73.2922 37.6546 67.3787 33.371 64.2026 25.6815C61.9041 20.1024 56.5758 10.7203 46.8176 10.4487C39.5251 10.2188 21.7012 11.7024 13.155 29.8606C10.0206 36.4845 9.58182 41.9173 11.8385 45.5949C13.8236 48.8337 18.0027 50.777 23.2893 50.9232C25.0863 50.965 27.5101 50.7561 28.7639 49.4815C30.0176 48.2068 29.934 46.1173 29.934 46.0964C29.934 46.0128 29.934 45.8247 29.934 45.7412V25.6188C29.934 22.7352 32.2743 20.3949 35.1579 20.3949C38.0415 20.3949 40.3818 22.7352 40.3818 25.6188V45.5949C40.4445 46.9949 40.4027 52.3859 36.4116 56.6068C34.2594 58.8844 30.1639 61.5173 23.0176 61.3501C14.137 61.0994 6.82362 57.3591 2.95795 51.0486C0.0325865 46.3053 -2.20323 37.9889 3.73109 25.389C14.8684 1.67258 37.8325 -0.249798 47.1101 0.0218435C58.5191 0.356171 68.2563 8.25467 73.8354 21.7114C75.8832 26.6636 80.1041 29.7352 84.1578 32.7024C88.2533 35.6904 92.119 38.4904 93.3936 43.1083C95.9638 52.3232 93.122 65.4038 76.6772 71.965C67.9847 75.4337 58.4982 77.2098 49.6594 77.2098V77.1889Z" fill="black"/>
<path d="M181.427 18.9631H202.72C204.12 18.9631 205.29 18.5661 206.167 17.7511C207.045 16.9362 207.484 15.9123 207.484 14.5959C207.484 13.2795 207.045 12.1512 206.126 11.2735C205.206 10.3959 204.078 9.97803 202.72 9.97803H175.221C173.842 9.97803 172.735 10.4168 171.815 11.3362C170.896 12.2556 170.457 13.3631 170.457 14.7422V62.1958C170.457 63.5749 170.896 64.6824 171.815 65.6018C172.735 66.5212 173.842 66.96 175.221 66.96H202.72C204.078 66.96 205.227 66.5421 206.126 65.7063C207.045 64.8705 207.484 63.8257 207.484 62.5093C207.484 61.2973 207.045 60.2735 206.126 59.3541C205.206 58.4347 204.099 57.9958 202.72 57.9958H181.427C180.779 57.9958 180.236 57.4735 180.236 56.8048V43.5153C180.236 42.8675 180.759 42.3242 181.427 42.3242H199.042C200.442 42.3242 201.612 41.9272 202.49 41.1123C203.367 40.2974 203.806 39.2735 203.806 37.9571C203.806 36.6407 203.367 35.5123 202.448 34.6347C201.529 33.7571 200.4 33.3392 199.042 33.3392H181.427C180.779 33.3392 180.236 32.8168 180.236 32.1481V20.0914C180.236 19.4437 180.759 18.9004 181.427 18.9004V18.9631Z" fill="black"/>
<path d="M252.765 9.99892H216.324C214.966 9.99892 213.816 10.4168 212.918 11.2527C211.998 12.0885 211.56 13.1332 211.56 14.4497C211.56 15.7661 211.998 16.8944 212.876 17.7303C213.754 18.5661 214.924 18.984 216.324 18.984H228.255C228.903 18.984 229.446 19.5064 229.446 20.175V62.2376C229.446 63.6167 229.906 64.7242 230.846 65.6436C231.807 66.563 232.977 67.0227 234.461 67.0227C235.945 67.0227 237.157 66.563 238.16 65.6436C239.162 64.7242 239.643 63.6167 239.643 62.2376V20.1541C239.643 19.5064 240.165 18.9631 240.834 18.9631H252.765C254.186 18.9631 255.336 18.5661 256.213 17.7511C257.091 16.9362 257.53 15.8914 257.53 14.5123C257.53 13.1332 257.091 12.0676 256.213 11.2318C255.336 10.3959 254.165 9.97803 252.765 9.97803V9.99892Z" fill="black"/>
<path d="M162.392 19.1308C160.887 16.3517 158.86 14.1159 156.415 12.4652C153.929 10.8353 151.296 9.99951 148.58 9.99951H131.968C131.968 9.99951 131.78 9.99951 131.696 10.0204C131.592 10.0204 131.508 9.99951 131.404 9.99951C129.941 9.99951 128.708 10.4592 127.705 11.3786C126.702 12.298 126.221 13.4055 126.221 14.7846V62.1546C126.221 63.5338 126.681 64.6412 127.621 65.5606C128.583 66.48 129.753 66.9397 131.236 66.9397C132.72 66.9397 133.932 66.48 134.935 65.5606C135.938 64.6412 136.418 63.5338 136.418 62.1546V46.483H148.58C151.296 46.483 153.95 45.6472 156.415 44.0383C158.881 42.3875 160.908 40.1308 162.412 37.3517C163.917 34.5726 164.669 31.5219 164.669 28.2622C164.669 25.0025 163.917 21.9099 162.412 19.1517L162.392 19.1308ZM154.326 32.7338C153.657 34.1756 152.8 35.3457 151.798 36.2025C150.753 37.1219 149.687 37.5607 148.559 37.5607C148.433 37.5607 148.329 37.5607 148.203 37.498H136.377V18.9219H148.998C149.227 18.9219 149.415 18.9846 149.603 19.089C150.335 19.2771 151.066 19.6741 151.777 20.2801C152.801 21.1577 153.657 22.307 154.305 23.7278C154.932 25.1487 155.266 26.6532 155.266 28.1995C155.266 29.7457 154.953 31.2502 154.305 32.7129L154.326 32.7338Z" fill="black"/>
<path d="M406.89 13.7811C403.254 11.2736 398.845 9.99902 393.768 9.99902H374.147C372.768 9.99902 371.66 10.4378 370.741 11.3572C369.822 12.2766 369.383 13.3841 369.383 14.7632V62.2168C369.383 63.5959 369.822 64.7034 370.741 65.6228C371.66 66.5422 372.768 66.981 374.147 66.981H393.768C398.845 66.981 403.254 65.7064 406.89 63.1989C410.526 60.6915 413.347 57.2437 415.269 52.9601C417.192 48.6557 418.153 43.787 418.153 38.4796C418.153 33.1721 417.171 28.3035 415.269 23.999C413.347 19.7154 410.526 16.2677 406.89 13.7602V13.7811ZM404.216 52.4587C401.687 56.1989 397.989 58.0168 392.932 58.0168H380.332C379.684 58.0168 379.141 57.4945 379.141 56.8258V20.1542C379.141 19.5065 379.663 18.9632 380.332 18.9632H392.932C397.926 18.9632 401.604 20.7811 404.174 24.5214C406.681 28.1781 407.956 32.8796 407.956 38.4796C407.956 44.0796 406.702 48.781 404.216 52.4378V52.4587Z" fill="black"/>
<path d="M455.722 58.017H434.43C433.782 58.017 433.239 57.4946 433.239 56.826V43.5365C433.239 42.8887 433.761 42.3454 434.43 42.3454H452.045C453.445 42.3454 454.615 41.9484 455.492 41.1335C456.37 40.3186 456.809 39.2947 456.809 37.9783C456.809 36.6618 456.37 35.5335 455.451 34.6559C454.531 33.7783 453.403 33.3604 452.045 33.3604H434.43C433.782 33.3604 433.239 32.838 433.239 32.1693V20.1126C433.239 19.4649 433.761 18.9216 434.43 18.9216H455.722C457.122 18.9216 458.292 18.5246 459.17 17.7096C460.048 16.8947 460.486 15.8708 460.486 14.5544C460.486 13.238 460.048 12.1097 459.128 11.232C458.209 10.3544 457.081 9.93652 455.722 9.93652H428.224C426.845 9.93652 425.737 10.3753 424.818 11.2947C423.899 12.2141 423.46 13.3216 423.46 14.7007V62.1543C423.46 63.5334 423.899 64.6409 424.818 65.5603C425.737 66.4797 426.845 66.9185 428.224 66.9185H455.722C457.101 66.9185 458.209 66.5006 459.128 65.6648C460.048 64.829 460.486 63.7842 460.486 62.4678C460.486 61.2558 460.048 60.232 459.128 59.3126C458.209 58.3932 457.101 57.9543 455.722 57.9543V58.017Z" fill="black"/>
<path d="M335.929 67.2528C327.508 67.2528 319.463 62.9692 314.407 55.7812C312.839 53.5662 313.383 50.4946 315.598 48.9483C317.813 47.3812 320.884 47.9245 322.43 50.1394C325.69 54.7782 330.601 57.4319 335.929 57.4319C345.311 57.4319 352.959 49.0319 352.959 38.7304C352.959 28.429 345.311 20.029 335.929 20.029C328.887 20.029 322.493 24.8976 320.007 32.1275C319.129 34.6976 316.329 36.0558 313.759 35.1782C311.189 34.3006 309.83 31.5006 310.708 28.9305C314.574 17.7514 324.708 10.229 335.929 10.229C350.723 10.229 362.78 23.017 362.78 38.7513C362.78 54.4856 350.744 67.2737 335.929 67.2737V67.2528Z" fill="black"/>
<path d="M285.152 67.2527C270.358 67.2527 258.301 54.4646 258.301 38.7303C258.301 22.996 270.337 10.208 285.152 10.208C289.979 10.208 294.701 11.5871 298.838 14.1782C301.137 15.6199 301.827 18.6498 300.385 20.9483C298.943 23.2468 295.913 23.9154 293.615 22.4946C291.065 20.8856 288.14 20.0289 285.173 20.0289C275.791 20.0289 268.143 28.4289 268.143 38.7303C268.143 49.0318 275.791 57.4318 285.173 57.4318C288.036 57.4318 290.752 56.6796 293.239 55.196C295.37 53.9423 297.25 52.1453 298.713 50.0348C299.215 49.3035 303.853 42.8885 310.812 42.8885H310.853C313.862 42.8885 318.271 44.1632 322.283 50.0766C323.809 52.3124 323.224 55.384 320.967 56.8885C318.731 58.4139 315.659 57.8288 314.155 55.5721C312.943 53.796 311.689 52.7094 310.812 52.7094C309.537 52.7094 307.656 54.402 306.779 55.6348C304.543 58.8736 301.576 61.6527 298.253 63.6378C294.283 65.999 289.749 67.2527 285.173 67.2527H285.152Z" fill="black"/>
</svg>
